<?xml version="1.0" standalone="no"?>
<!DOCTYPE svg PUBLIC "-//W3C//DTD SVG 20010904//EN"
 "http://www.w3.org/TR/2001/REC-SVG-20010904/DTD/svg10.dtd">
<svg version="1.0" xmlns="http://www.w3.org/2000/svg"
 width="667.000000pt" height="147.000000pt" viewBox="0 0 667.000000 147.000000"
 preserveAspectRatio="xMidYMid meet">
<metadata>
Created by potrace 1.16, written by Peter Selinger 2001-2019
</metadata>
<g transform="translate(0.000000,147.000000) scale(0.100000,-0.100000)"
fill="#000000" stroke="none">
<path d="M780 1159 c-49 -20 -110 -53 -110 -60 0 -4 16 -10 36 -14 88 -16 355
-112 582 -209 45 -19 82 -32 82 -27 0 10 -134 100 -245 164 -71 41 -308 158
-317 156 -2 0 -14 -5 -28 -10z"/>
<path d="M530 953 c-17 -26 -30 -50 -30 -55 0 -11 27 -16 205 -33 88 -9 167
-18 175 -20 44 -13 417 -65 457 -64 l48 1 -33 14 c-121 53 -695 204 -774 204
-11 0 -30 -18 -48 -47z"/>
<path d="M2500 985 c0 -4 10 -24 21 -45 l22 -38 114 -4 115 -3 30 -34 c25 -28
29 -39 24 -70 -8 -55 -45 -81 -112 -81 -31 0 -54 -4 -52 -8 2 -5 37 -68 78
-140 l75 -132 53 0 54 0 -25 42 c-77 134 -91 162 -79 166 30 10 72 56 88 97
33 88 0 180 -81 227 -36 20 -56 23 -182 26 -79 2 -143 1 -143 -3z m326 -41
c108 -80 101 -220 -15 -295 l-25 -16 48 -84 c27 -46 51 -87 53 -91 2 -5 -11
-8 -29 -8 -32 0 -36 5 -98 112 -36 61 -66 114 -68 118 -1 4 20 10 47 14 66 9
101 47 101 113 0 37 -5 50 -31 74 -30 28 -34 29 -139 29 -101 0 -110 2 -124
22 -9 12 -16 26 -16 31 0 5 60 7 134 5 117 -3 138 -6 162 -24z"/>
<path d="M3371 978 c0 -7 60 -132 133 -278 l133 -265 27 52 26 52 -116 226
-116 225 -44 0 c-29 0 -44 -4 -43 -12z m192 -224 c101 -202 107 -219 96 -245
-6 -16 -14 -29 -18 -29 -3 0 -61 110 -129 245 l-122 245 33 0 c32 0 33 -1 140
-216z"/>
<path d="M4149 977 c-76 -22 -153 -90 -184 -164 -23 -55 -19 -158 9 -218 26
-56 90 -119 145 -142 40 -17 140 -23 185 -10 l29 8 -49 33 c-27 18 -65 37 -84
41 -48 10 -80 28 -112 62 -122 128 0 341 173 302 23 -6 54 -18 69 -29 l27 -19
28 29 c15 16 25 35 22 42 -2 8 -27 26 -54 40 -60 33 -140 43 -204 25z m177
-31 c62 -29 69 -38 45 -60 -17 -15 -21 -15 -62 4 -130 59 -275 -25 -287 -166
-8 -97 64 -194 157 -210 41 -7 101 -41 101 -56 0 -7 -24 -9 -69 -6 -113 8
-201 74 -236 177 -72 211 150 411 351 317z"/>
<path d="M4607 976 c-49 -18 -64 -32 -88 -77 -25 -49 -24 -92 2 -145 33 -69
70 -86 204 -93 98 -5 116 -9 129 -26 28 -37 14 -89 -30 -105 -21 -8 -24 -16
-24 -55 0 -51 5 -53 66 -26 84 38 118 140 73 221 -37 65 -70 80 -178 80 -109
0 -157 16 -167 55 -9 35 10 73 41 85 22 8 25 16 25 55 0 50 0 50 -53 31z m43
-33 c-1 -20 -10 -34 -33 -48 -27 -17 -33 -27 -35 -63 -3 -34 2 -47 22 -67 23
-23 32 -25 121 -25 59 0 108 -5 128 -14 97 -41 120 -158 45 -232 -18 -17 -43
-35 -55 -39 -20 -6 -23 -3 -23 22 0 21 9 36 29 50 34 26 43 60 25 101 -18 44
-41 52 -144 52 -100 0 -141 12 -180 55 -21 22 -25 36 -25 90 0 57 3 67 30 95
51 54 95 65 95 23z"/>
<path d="M5208 977 c-85 -24 -157 -90 -188 -172 -19 -49 -14 -157 8 -207 24
-53 80 -111 135 -140 59 -31 175 -31 233 0 63 32 97 65 129 124 25 45 29 64
29 128 0 64 -4 83 -29 128 -64 117 -193 173 -317 139z m156 -19 c55 -16 148
-109 164 -164 30 -104 9 -188 -68 -264 -60 -61 -105 -80 -186 -80 -89 1 -181
60 -227 145 -17 31 -22 58 -22 115 0 57 5 84 22 115 62 116 191 170 317 133z"/>
<path d="M5190 888 c-147 -75 -144 -292 5 -359 72 -33 166 -19 224 34 34 32
61 95 61 147 0 150 -156 245 -290 178z m183 -22 c40 -21 79 -78 91 -129 9 -37
-10 -104 -39 -143 -74 -97 -238 -85 -301 22 -28 48 -32 129 -10 173 20 38 80
89 114 97 15 3 32 7 37 9 20 5 71 -8 108 -29z"/>
<path d="M6008 825 l-3 -165 -178 160 c-98 88 -180 160 -182 160 -3 0 -5 -30
-5 -67 l1 -68 195 -175 c107 -96 210 -188 229 -203 l35 -29 0 276 0 276 -45 0
-45 0 -2 -165z m82 -101 c0 -165 -3 -245 -10 -242 -6 2 -103 86 -215 187
l-205 183 0 45 c0 31 3 42 11 37 7 -4 89 -77 183 -162 l171 -154 3 176 2 176
30 0 30 0 0 -246z"/>
<path d="M1690 920 l0 -65 137 -137 138 -138 92 92 93 93 0 -168 0 -167 45 0
45 0 0 277 0 278 -137 -138 -138 -137 -137 137 -138 138 0 -65z m400 -105
l130 130 0 -248 0 -247 -30 0 -30 0 0 177 0 178 -100 -100 -100 -100 -130 130
c-123 123 -130 132 -130 170 l0 40 130 -130 130 -130 130 130z"/>
<path d="M2320 710 l0 -274 45 44 45 44 0 186 0 186 -45 44 -45 44 0 -274z
m80 3 l0 -173 -30 -32 -29 -33 -1 234 0 235 30 -29 30 -29 0 -173z"/>
<path d="M3105 714 c-71 -146 -131 -270 -133 -275 -2 -5 18 -9 45 -9 l48 0 85
170 c46 94 87 170 90 170 3 0 22 -34 43 -75 l37 -75 50 0 c27 0 50 2 50 5 0
10 -175 355 -180 355 -3 -1 -63 -120 -135 -266z m213 81 c39 -80 72 -150 72
-156 0 -6 -12 -9 -27 -7 -24 3 -35 16 -73 90 -25 49 -47 88 -50 88 -3 0 -46
-81 -95 -180 -89 -178 -90 -180 -122 -180 l-33 0 122 245 c68 135 125 245 128
245 3 0 38 -65 78 -145z"/>
<path d="M3770 710 l0 -274 45 44 45 44 0 186 0 186 -45 44 -45 44 0 -274z
m80 0 l0 -176 -30 -29 -30 -29 0 234 0 234 30 -29 30 -29 0 -176z"/>
<path d="M488 794 c-15 -4 -18 -17 -18 -65 0 -36 4 -59 11 -59 6 0 65 7 132
16 122 16 161 16 495 -2 101 -6 134 -4 190 11 37 10 71 21 76 26 5 5 -33 8
-85 8 -68 0 -137 9 -249 32 -137 28 -177 32 -345 35 -104 1 -198 0 -207 -2z"/>
<path d="M1305 644 c-69 -26 -156 -30 -345 -14 -129 11 -268 1 -390 -29 -68
-17 -75 -21 -72 -41 4 -38 43 -92 61 -87 180 54 208 58 406 67 110 5 214 14
232 19 34 10 170 88 179 102 7 12 -2 10 -71 -17z"/>
<path d="M1329 574 c-49 -37 -119 -71 -160 -78 -18 -4 -108 -10 -199 -15 -146
-7 -176 -12 -260 -40 -52 -18 -99 -36 -103 -40 -5 -5 15 -25 43 -46 l51 -37
78 31 c55 21 116 35 202 46 199 25 221 34 314 126 83 82 93 97 34 53z"/>
<path d="M1265 434 c-65 -58 -77 -63 -345 -124 -52 -12 -99 -26 -104 -30 -14
-14 116 -22 181 -11 109 17 219 80 283 162 18 21 30 39 28 39 -1 -1 -21 -17
-43 -36z"/>
</g>
</svg>
