<?xml version="1.0" standalone="no"?>
<!DOCTYPE svg PUBLIC "-//W3C//DTD SVG 20010904//EN"
 "http://www.w3.org/TR/2001/REC-SVG-20010904/DTD/svg10.dtd">
<svg version="1.0" xmlns="http://www.w3.org/2000/svg"
 width="890.000000pt" height="546.000000pt" viewBox="0 0 890.000000 546.000000"
 preserveAspectRatio="xMidYMid meet">
<metadata>
Created by potrace 1.16, written by Peter Selinger 2001-2019
</metadata>
<g transform="translate(0.000000,546.000000) scale(0.100000,-0.100000)"
fill="#000000" stroke="none">
<path d="M4321 4140 l0 -435 940 -945 939 -944 623 622 c342 342 625 622 630
622 4 0 7 -502 7 -1115 l0 -1115 310 0 310 0 0 1870 c0 1029 -3 1870 -7 1870
-5 0 -428 -420 -940 -932 l-933 -933 -682 680 c-376 374 -799 795 -940 935
l-258 255 1 -435z m994 -720 c480 -478 876 -870 881 -870 6 0 405 392 887 871
l877 871 0 -1676 0 -1676 -192 2 -193 3 -3 1205 -2 1205 -685 -685 -685 -685
-885 885 -885 885 0 267 c0 148 3 268 7 268 4 0 399 -391 878 -870z"/>
<path d="M2800 4495 c0 -2 61 -45 135 -95 184 -125 426 -306 634 -474 329
-267 404 -326 409 -322 9 10 -147 232 -227 322 -211 241 -501 433 -804 532
-125 41 -147 47 -147 37z"/>
<path d="M1775 4456 c-127 -43 -252 -101 -360 -166 -81 -49 -102 -66 -93 -76
3 -2 112 -34 244 -70 686 -189 1342 -422 1969 -699 116 -51 260 -113 320 -138
61 -24 150 -63 199 -86 49 -23 91 -39 94 -37 2 3 1 19 -3 36 -7 34 -13 39
-265 219 -168 120 -487 315 -805 491 -374 208 -1083 546 -1165 556 -23 3 -69
-7 -135 -30z"/>
<path d="M833 3733 c-69 -104 -130 -215 -172 -315 l-20 -47 32 -6 c18 -3 151
-17 297 -31 619 -59 1068 -114 1465 -179 154 -25 465 -75 690 -110 226 -36
424 -67 440 -70 24 -5 599 -55 628 -55 4 0 7 11 7 24 0 22 -20 30 -297 124
-457 155 -1550 477 -1863 548 -255 58 -620 132 -860 175 -124 21 -236 42 -250
44 -22 5 -32 -6 -97 -102z"/>
<path d="M1115 3034 c-74 -4 -405 -31 -515 -42 l-64 -7 -10 -45 c-9 -44 -14
-455 -5 -464 2 -3 117 13 254 35 522 83 921 117 1260 106 99 -4 383 -25 630
-48 372 -35 491 -42 685 -43 268 0 247 -4 625 101 229 63 245 69 245 90 0 23
-1 23 -82 16 -46 -5 -204 -8 -353 -8 -337 1 -408 11 -1160 171 -246 53 -507
97 -695 120 -130 15 -649 26 -815 18z"/>
<path d="M4070 2454 c-159 -65 -359 -127 -485 -151 -157 -29 -491 -23 -900 18
-312 30 -368 33 -685 33 -277 0 -370 -3 -470 -17 -298 -42 -500 -83 -775 -158
-82 -23 -151 -42 -152 -43 -4 -4 73 -199 97 -248 48 -94 125 -218 135 -214 5
3 111 38 236 80 533 177 828 225 1414 226 329 1 659 17 810 39 215 32 290 62
531 209 394 242 384 235 384 260 0 12 -1 22 -2 21 -2 0 -64 -25 -138 -55z"/>
<path d="M4018 2132 c-301 -225 -477 -309 -732 -347 -122 -18 -465 -35 -716
-35 -396 0 -689 -45 -1045 -161 -152 -49 -442 -162 -460 -180 -20 -20 156
-170 318 -271 51 -32 97 -58 103 -58 6 0 79 32 163 70 332 153 497 193 1056
255 470 52 656 99 848 213 63 37 132 99 338 302 185 182 259 262 259 278 0 12
-3 22 -7 22 -5 0 -61 -40 -125 -88z"/>
<path d="M3875 1679 c-221 -226 -342 -313 -530 -384 -105 -39 -375 -107 -700
-175 -159 -34 -335 -72 -390 -86 -135 -33 -365 -106 -365 -115 0 -19 235 -57
400 -65 598 -30 1195 254 1561 742 51 69 105 154 97 154 -2 0 -35 -32 -73 -71z"/>
</g>
</svg>
